#!OML:ASF H:\Dans Jumps\Project 1\Capture day 1\Session 1\subject.ASF
:FULLY-SPECIFIED
:DEGREES
551
root 0.512409 17.7218 2.31098 6.90425 -0.18673 -1.76499
lowerback 0.646249 -0.388523 -0.630551
upperback 3.31869 -0.551365 1.58571
thorax 3.06746 -0.316976 1.97239
lowerneck -12.0989 0.100711 -1.7118
upperneck 36.0622 0.154082 1.24494
head 14.3963 -0.00538415 0.836475
rclavicle 1.68967e-015 -1.98785e-015
rhumerus -25.2078 -11.4621 -81.9126
rradius 27.8377
rwrist 28.1859
rhand -18.5182 -26.2477
rfingers 7.12502
rthumb 7.77018 -56.0849
lclavicle 1.68967e-015 -1.98785e-015
lhumerus -20.0781 -5.10358 88.7131
lradius 22.0137
lwrist 7.79744
lhand -24.9813 -2.88032
lfingers 7.12502
lthumb 1.52958 27.0939
rfemur -17.2085 -2.84082 20.2827
rtibia 22.542
rfoot -10.9127 -2.4139
rtoes 14.0291
lfemur -16.1417 8.09321 -17.5531
ltibia 20.283
lfoot -8.57938 3.89974
ltoes -1.83664
552
root 0.513691 17.7211 2.30686 6.88132 -0.201125 -1.77253
lowerback 0.63666 -0.385608 -0.61642
upperback 3.31589 -0.547723 1.589
thorax 3.06972 -0.314821 1.96786
lowerneck -12.0833 0.0959644 -1.71253
upperneck 36.0688 0.14788 1.24181
head 14.3959 -0.00863551 0.834363
rclavicle -5.26779e-015 9.14409e-015
rhumerus -24.9789 -10.9346 -82.1867
rradius 28.2671
rwrist 27.739
rhand -18.5508 -26.2564
rfingers 7.12502
rthumb 7.73873 -56.0948
lclavicle -5.26779e-015 9.14409e-015
lhumerus -19.7469 -5.27322 88.6903
lradius 22.4233
lwrist 8.11746
lhand -24.9383 -2.80117
lfingers 7.12502
lthumb 1.57118 27.1728
rfemur -17.2056 -2.82745 20.2847
rtibia 22.5525
rfoot -10.9068 -2.41854
rtoes 14.0234
lfemur -16.136 8.09753 -17.5469
ltibia 20.296
lfoot -8.57935 3.9045
ltoes -1.82068
553
root 0.515469 17.7205 2.30314 6.85594 -0.216868 -1.77368
lowerback 0.627208 -0.378474 -0.600118
upperback 3.31272 -0.538296 1.58535
thorax 3.07117 -0.309601 1.95509
lowerneck -12.0469 0.0870974 -1.71793
upperneck 36.0617 0.130845 1.25448
head 14.3846 -0.0149565 0.837663
rclavicle -3.23025e-015 2.18663e-015
rhumerus -24.7704 -10.4148 -82.4532
rradius 28.7122
rwrist 27.2929
rhand -18.5971 -26.2716
rfingers 7.12502
rthumb 7.694 -56.1116
lclavicle -3.23025e-015 2.18663e-015
lhumerus -19.4154 -5.42925 88.6523
lradius 22.8126
lwrist 8.42874
lhand -24.818 -2.80231
lfingers 7.12502
lthumb 1.68738 27.1708
rfemur -17.1999 -2.82456 20.2778
rtibia 22.5644
rfoot -10.9039 -2.41247
rtoes 14.0115
lfemur -16.1243 8.08889 -17.5487
ltibia 20.3075
lfoot -8.57763 3.92294
ltoes -1.80148
554
root 0.517688 17.7199 2.29981 6.82784 -0.232081 -1.77062
lowerback 0.619093 -0.370049 -0.582754
upperback 3.31033 -0.527087 1.5786
thorax 3.07257 -0.303418 1.93857
lowerneck -12.0012 0.075034 -1.72939
upperneck 36.047 0.106848 1.27755
head 14.3677 -0.0236515 0.845114
rclavicle -6.90777e-015 1.31198e-014
rhumerus -24.5785 -9.90456 -82.708
rradius 29.1703
rwrist 26.8529
rhand -18.6551 -26.2873
rfingers 7.12502
rthumb 7.63801 -56.1294
lclavicle -6.90777e-015 1.31198e-014
lhumerus -19.0863 -5.58304 88.6094
lradius 23.1783
lwrist 8.73511
lhand -24.6974 -2.91127
lfingers 7.12502
lthumb 1.80385 27.0608
rfemur -17.1904 -2.8321 20.2649
rtibia 22.5771
rfoot -10.9032 -2.39696
rtoes 13.9916
lfemur -16.1074 8.07181 -17.5562
ltibia 20.3183
lfoot -8.57518 3.94965
ltoes -1.786
555
root 0.519919 17.7193 2.29647 6.80123 -0.24877 -1.76563
lowerback 0.611508 -0.365272 -0.568562
upperback 3.30681 -0.520724 1.57284
thorax 3.07275 -0.299743 1.92476
lowerneck -11.9702 0.068595 -1.7419
upperneck 36.0468 0.0917589 1.30028
head 14.3608 -0.0288344 0.854189
rclavicle -6.80837e-015 1.35174e-014
rhumerus -24.3918 -9.41714 -82.9448
rradius 29.6225
rwrist 26.4488
rhand -18.7133 -26.2914
rfingers 7.12502
rthumb 7.58193 -56.1355
lclavicle -6.80837e-015 1.35174e-014
lhumerus -18.7734 -5.72785 88.569
lradius 23.5382
lwrist 9.0367
lhand -24.6587 -3.03577
lfingers 7.12502
lthumb 1.8412 26.936
rfemur -17.184 -2.8415 20.25
rtibia 22.5928
rfoot -10.9051 -2.37626
rtoes 13.9734
lfemur -16.0903 8.05945 -17.5666
ltibia 20.3259
lfoot -8.57027 3.97267
ltoes -1.77916
556
root 0.522077 17.7187 2.29324 6.77699 -0.266126 -1.75675
lowerback 0.601687 -0.365299 -0.560618
upperback 3.30213 -0.520732 1.56861
thorax 3.07331 -0.299441 1.91589
lowerneck -11.9607 0.068726 -1.75244
upperneck 36.0671 0.0882939 1.31697
head 14.3681 -0.0297174 0.862523
rclavicle 2.83268e-015 3.57812e-015
rhumerus -24.2074 -8.96504 -83.1601
rradius 30.0624
rwrist 26.0924
rhand -18.7578 -26.2669
rfingers 7.12502
rthumb 7.53895 -56.1125
lclavicle 2.83268e-015 3.57812e-015
lhumerus -18.4798 -5.86961 88.5344
lradius 23.9047
lwrist 9.34998
lhand -24.7052 -3.09641
lfingers 7.12502
lthumb 1.7963 26.8758
rfemur -17.1809 -2.85446 20.2315
rtibia 22.6118
rfoot -10.9089 -2.35088
rtoes 13.9629
lfemur -16.0734 8.05199 -17.5817
ltibia 20.33
lfoot -8.56397 3.99148
ltoes -1.77889
557
root 0.52405 17.7182 2.28999 6.75434 -0.285875 -1.74832
lowerback 0.593721 -0.369078 -0.561737
upperback 3.29553 -0.5258 1.57156
thorax 3.07121 -0.301998 1.91941
lowerneck -11.9572 0.0731847 -1.76484
upperneck 36.0939 0.0954662 1.32342
head 14.3796 -0.0277271 0.86872
rclavicle 6.16232e-015 -5.96354e-016
rhumerus -24.0241 -8.53959 -83.3521
rradius 30.4878
rwrist 25.7707
rhand -18.7956 -26.2279
rfingers 7.12502
rthumb 7.50249 -56.0748
lclavicle 6.16232e-015 -5.96354e-016
lhumerus -18.2073 -6.00257 88.5127
lradius 24.2703
lwrist 9.64533
lhand -24.8426 -3.12317
lfingers 7.12502
lthumb 1.66354 26.8501
rfemur -17.181 -2.8622 20.2138
rtibia 22.6333
rfoot -10.9134 -2.32621
rtoes 13.9593
lfemur -16.0572 8.04965 -17.5962
ltibia 20.3317
lfoot -8.5549 4.00812
ltoes -1.78912
558
root 0.525983 17.7176 2.28693 6.73197 -0.308951 -1.73456
lowerback 0.584499 -0.371048 -0.570023
upperback 3.28977 -0.528349 1.57334
thorax 3.07067 -0.303492 1.92579
lowerneck -11.9534 0.076366 -1.77388
upperneck 36.1162 0.100605 1.32772
head 14.389 -0.0264072 0.873079
rclavicle 1.39646e-014 -2.20651e-014
rhumerus -23.8468 -8.14375 -83.5304
rradius 30.9076
rwrist 25.4636
rhand -18.8304 -26.1971
rfingers 7.12502
rthumb 7.46885 -56.0453
lclavicle 1.39646e-014 -2.20651e-014
lhumerus -17.9433 -6.13045 88.4915
lradius 24.6265
lwrist 9.93354
lhand -25.0052 -3.19927
lfingers 7.12502
lthumb 1.50655 26.7752
rfemur -17.1825 -2.86762 20.19
rtibia 22.657
rfoot -10.9171 -2.30031
rtoes 13.9603
lfemur -16.0387 8.04981 -17.6169
ltibia 20.3297
lfoot -8.54426 4.02423
ltoes -1.79598
559
root 0.527853 17.7171 2.28406 6.70896 -0.335163 -1.72102
lowerback 0.575068 -0.371844 -0.57948
upperback 3.28556 -0.529337 1.57513
thorax 3.07179 -0.304258 1.93288
lowerneck -11.9492 0.0790915 -1.77686
upperneck 36.1328 0.105105 1.32725
head 14.3957 -0.0251445 0.87425
rclavicle -8.59744e-015 1.49089e-014
rhumerus -23.6665 -7.77828 -83.6978
rradius 31.3073
rwrist 25.1733
rhand -18.8676 -26.1742
rfingers 7.12502
rthumb 7.433 -56.0237
lclavicle -8.59744e-015 1.49089e-014
lhumerus -17.6824 -6.25096 88.4688
lradius 24.9644
lwrist 10.222
lhand -25.1712 -3.32962
lfingers 7.12502
lthumb 1.34625 26.6459
rfemur -17.1837 -2.86855 20.1663
rtibia 22.682
rfoot -10.9204 -2.27598
rtoes 13.9658
lfemur -16.0165 8.05341 -17.6371
ltibia 20.324
lfoot -8.53269 4.03982
ltoes -1.80066
560
root 0.529619 17.7167 2.28144 6.68473 -0.364312 -1.70682
lowerback 0.564927 -0.371525 -0.592021
upperback 3.2837 -0.528837 1.57737
thorax 3.07573 -0.304405 1.94219
lowerneck -11.948 0.0811127 -1.7815
upperneck 36.1472 0.10871 1.32783
head 14.4021 -0.0243312 0.875997
rclavicle 1.73937e-015 -3.37934e-015
rhumerus -23.4894 -7.42657 -83.8568
rradius 31.7019
rwrist 24.8828
rhand -18.8966 -26.1874
rfingers 7.12502
rthumb 7.40501 -56.0378
lclavicle 1.73937e-015 -3.37934e-015
lhumerus -17.4229 -6.37237 88.4464
lradius 25.28
lwrist 10.5062
lhand -25.3455 -3.5136
lfingers 7.12502
lthumb 1.17784 26.4629
rfemur -17.1828 -2.86339 20.1421
rtibia 22.7066
rfoot -10.9232 -2.25552
rtoes 13.9674
lfemur -15.9893 8.06035 -17.6573
ltibia 20.3139
lfoot -8.52127 4.05432
ltoes -1.79725
561
root 0.53144 17.7163 2.27914 6.65881 -0.395731 -1.68881
lowerback 0.553104 -0.370974 -0.607966
upperback 3.28477 -0.527984 1.5783
thorax 3.08365 -0.304494 1.95205
lowerneck -11.9509 0.0841228 -1.78764
upperneck 36.1612 0.113493 1.33061
head 14.4092 -0.0229179 0.879104
rclavicle -7.90169e-015 5.36719e-015
rhumerus -23.3074 -7.09936 -84.0061
rradius 32.0708
rwrist 24.614
rhand -18.9413 -26.1988
rfingers 7.12502
rthumb 7.36185 -56.0507
lclavicle -7.90169e-015 5.36719e-015
lhumerus -17.1617 -6.49482 88.4244
lradius 25.5708
lwrist 10.7872
lhand -25.5195 -3.69745
lfingers 7.12502
lthumb 1.00982 26.2799
rfemur -17.1775 -2.85826 20.1138
rtibia 22.7279
rfoot -10.9244 -2.23587
rtoes 13.9504
lfemur -15.9569 8.07069 -17.6817
ltibia 20.3015
lfoot -8.51163 4.06705
ltoes -1.78698
562
root 0.533409 17.7159 2.27718 6.63058 -0.426977 -1.67118
lowerback 0.543459 -0.370718 -0.621515
upperback 3.28708 -0.527558 1.5791
thorax 3.09162 -0.304737 1.96044
lowerneck -11.9576 0.0857866 -1.79522
upperneck 36.1762 0.116745 1.33334
head 14.4176 -0.0223708 0.882245
rclavicle 2.83268e-015 -3.77691e-015
rhumerus -23.1273 -6.78786 -84.1462
rradius 32.4232
rwrist 24.3558
rhand -18.9863 -26.2198
rfingers 7.12502
rthumb 7.31838 -56.0732
lclavicle 2.83268e-015 -3.77691e-015
lhumerus -16.9066 -6.60959 88.4029
lradius 25.8444
lwrist 11.0509
lhand -25.6806 -3.86238
lfingers 7.12502
lthumb 0.854216 26.1157
rfemur -17.1658 -2.85702 20.0858
rtibia 22.7436
rfoot -10.9242 -2.21396
rtoes 13.9203
lfemur -15.9196 8.0831 -17.7057
ltibia 20.2877
lfoot -8.50489 4.07736
ltoes -1.7668
